<mxfile host="app.diagrams.net" modified="2023-07-17T06:35:04.096Z" agent="Mozilla/5.0 (Windows NT 10.0; Win64; x64) AppleWebKit/537.36 (KHTML, like Gecko) Chrome/114.0.0.0 Safari/537.36" etag="sGxccLbbDh_45dcPTcXq" version="21.6.2" type="github">
  <diagram name="Page-1" id="74e2e168-ea6b-b213-b513-2b3c1d86103e">
    <mxGraphModel dx="1434" dy="2496" grid="1" gridSize="10" guides="1" tooltips="1" connect="1" arrows="1" fold="1" page="1" pageScale="1" pageWidth="1100" pageHeight="850" background="none" math="0" shadow="0">
      <root>
        <mxCell id="0" />
        <mxCell id="1" parent="0" />
        <mxCell id="77e6c97f196da883-1" value="Pool" style="swimlane;html=1;childLayout=stackLayout;startSize=20;rounded=0;shadow=0;labelBackgroundColor=none;strokeWidth=1;fontFamily=Verdana;fontSize=8;align=center;" parent="1" vertex="1">
          <mxGeometry x="150" y="-870" width="820" height="1377.71" as="geometry" />
        </mxCell>
        <mxCell id="77e6c97f196da883-2" value="FOV" style="swimlane;html=1;startSize=20;" parent="77e6c97f196da883-1" vertex="1">
          <mxGeometry y="20" width="340" height="1357.71" as="geometry" />
        </mxCell>
        <mxCell id="feaUcs5_Ua8oaHWOWOog-1" value="" style="ellipse;fillColor=strokeColor;html=1;" parent="77e6c97f196da883-2" vertex="1">
          <mxGeometry x="20" y="60" width="20" height="20" as="geometry" />
        </mxCell>
        <mxCell id="feaUcs5_Ua8oaHWOWOog-3" value="&lt;font style=&quot;vertical-align: inherit;&quot;&gt;&lt;font style=&quot;vertical-align: inherit;&quot;&gt;Send request to supplier&lt;/font&gt;&lt;/font&gt;" style="rounded=0;whiteSpace=wrap;html=1;" parent="77e6c97f196da883-2" vertex="1">
          <mxGeometry x="110" y="40" width="120" height="60" as="geometry" />
        </mxCell>
        <mxCell id="_sFiiLIYxgbGUmQesAW4-66" style="edgeStyle=orthogonalEdgeStyle;rounded=0;orthogonalLoop=1;jettySize=auto;html=1;" edge="1" parent="77e6c97f196da883-2" source="_sFiiLIYxgbGUmQesAW4-1" target="_sFiiLIYxgbGUmQesAW4-10">
          <mxGeometry relative="1" as="geometry" />
        </mxCell>
        <mxCell id="_sFiiLIYxgbGUmQesAW4-1" value="Receive returnt from supplier" style="rounded=0;whiteSpace=wrap;html=1;" vertex="1" parent="77e6c97f196da883-2">
          <mxGeometry x="170" y="140" width="120" height="60" as="geometry" />
        </mxCell>
        <mxCell id="_sFiiLIYxgbGUmQesAW4-69" style="edgeStyle=orthogonalEdgeStyle;rounded=0;orthogonalLoop=1;jettySize=auto;html=1;entryX=0.5;entryY=0;entryDx=0;entryDy=0;" edge="1" parent="77e6c97f196da883-2" source="_sFiiLIYxgbGUmQesAW4-8" target="_sFiiLIYxgbGUmQesAW4-68">
          <mxGeometry relative="1" as="geometry" />
        </mxCell>
        <mxCell id="_sFiiLIYxgbGUmQesAW4-8" value="Receive cancel return&amp;nbsp;" style="rounded=0;whiteSpace=wrap;html=1;" vertex="1" parent="77e6c97f196da883-2">
          <mxGeometry x="150" y="395" width="120" height="60" as="geometry" />
        </mxCell>
        <mxCell id="_sFiiLIYxgbGUmQesAW4-10" value="Update status request &quot;Sup returnt&quot;" style="rounded=0;whiteSpace=wrap;html=1;" vertex="1" parent="77e6c97f196da883-2">
          <mxGeometry x="150" y="260" width="120" height="60" as="geometry" />
        </mxCell>
        <mxCell id="_sFiiLIYxgbGUmQesAW4-63" style="edgeStyle=orthogonalEdgeStyle;rounded=0;orthogonalLoop=1;jettySize=auto;html=1;" edge="1" parent="77e6c97f196da883-2" source="_sFiiLIYxgbGUmQesAW4-22" target="_sFiiLIYxgbGUmQesAW4-23">
          <mxGeometry relative="1" as="geometry" />
        </mxCell>
        <mxCell id="_sFiiLIYxgbGUmQesAW4-22" value="Receive message submitted" style="rounded=0;whiteSpace=wrap;html=1;" vertex="1" parent="77e6c97f196da883-2">
          <mxGeometry x="160" y="550" width="120" height="60" as="geometry" />
        </mxCell>
        <mxCell id="_sFiiLIYxgbGUmQesAW4-64" style="edgeStyle=orthogonalEdgeStyle;rounded=0;orthogonalLoop=1;jettySize=auto;html=1;entryX=0.408;entryY=0.05;entryDx=0;entryDy=0;entryPerimeter=0;" edge="1" parent="77e6c97f196da883-2" source="_sFiiLIYxgbGUmQesAW4-23" target="_sFiiLIYxgbGUmQesAW4-24">
          <mxGeometry relative="1" as="geometry" />
        </mxCell>
        <mxCell id="_sFiiLIYxgbGUmQesAW4-67" style="edgeStyle=orthogonalEdgeStyle;rounded=0;orthogonalLoop=1;jettySize=auto;html=1;entryX=0.167;entryY=0.983;entryDx=0;entryDy=0;entryPerimeter=0;" edge="1" parent="77e6c97f196da883-2" source="_sFiiLIYxgbGUmQesAW4-23" target="feaUcs5_Ua8oaHWOWOog-3">
          <mxGeometry relative="1" as="geometry" />
        </mxCell>
        <mxCell id="_sFiiLIYxgbGUmQesAW4-23" value="is evidents oke?&lt;br&gt;" style="rhombus;whiteSpace=wrap;html=1;" vertex="1" parent="77e6c97f196da883-2">
          <mxGeometry x="30" y="540" width="80" height="80" as="geometry" />
        </mxCell>
        <mxCell id="_sFiiLIYxgbGUmQesAW4-65" style="edgeStyle=orthogonalEdgeStyle;rounded=0;orthogonalLoop=1;jettySize=auto;html=1;entryX=0.633;entryY=0.333;entryDx=0;entryDy=0;entryPerimeter=0;" edge="1" parent="77e6c97f196da883-2" source="_sFiiLIYxgbGUmQesAW4-24" target="_sFiiLIYxgbGUmQesAW4-25">
          <mxGeometry relative="1" as="geometry" />
        </mxCell>
        <mxCell id="_sFiiLIYxgbGUmQesAW4-24" value="Approve" style="rounded=0;whiteSpace=wrap;html=1;" vertex="1" parent="77e6c97f196da883-2">
          <mxGeometry x="20" y="690" width="120" height="60" as="geometry" />
        </mxCell>
        <mxCell id="_sFiiLIYxgbGUmQesAW4-25" value="" style="ellipse;html=1;shape=endState;fillColor=strokeColor;" vertex="1" parent="77e6c97f196da883-2">
          <mxGeometry x="50" y="830" width="30" height="30" as="geometry" />
        </mxCell>
        <mxCell id="_sFiiLIYxgbGUmQesAW4-26" value="" style="endArrow=classic;html=1;rounded=0;entryX=0;entryY=0.5;entryDx=0;entryDy=0;exitX=1;exitY=0.5;exitDx=0;exitDy=0;" edge="1" parent="77e6c97f196da883-2" source="feaUcs5_Ua8oaHWOWOog-1" target="feaUcs5_Ua8oaHWOWOog-3">
          <mxGeometry width="50" height="50" relative="1" as="geometry">
            <mxPoint x="370" y="330" as="sourcePoint" />
            <mxPoint x="420" y="280" as="targetPoint" />
          </mxGeometry>
        </mxCell>
        <mxCell id="_sFiiLIYxgbGUmQesAW4-27" value="" style="endArrow=classic;html=1;rounded=0;entryX=0;entryY=0.5;entryDx=0;entryDy=0;exitX=1;exitY=0.5;exitDx=0;exitDy=0;" edge="1" parent="77e6c97f196da883-2">
          <mxGeometry width="50" height="50" relative="1" as="geometry">
            <mxPoint x="230" y="50" as="sourcePoint" />
            <mxPoint x="440" y="50" as="targetPoint" />
          </mxGeometry>
        </mxCell>
        <mxCell id="_sFiiLIYxgbGUmQesAW4-68" value="" style="ellipse;html=1;shape=endState;fillColor=strokeColor;" vertex="1" parent="77e6c97f196da883-2">
          <mxGeometry x="180" y="490" width="30" height="30" as="geometry" />
        </mxCell>
        <mxCell id="77e6c97f196da883-3" value="Supplier" style="swimlane;html=1;startSize=20;" parent="77e6c97f196da883-1" vertex="1">
          <mxGeometry x="340" y="20" width="480" height="1357.71" as="geometry" />
        </mxCell>
        <mxCell id="feaUcs5_Ua8oaHWOWOog-4" value="&lt;font style=&quot;vertical-align: inherit;&quot;&gt;&lt;font style=&quot;vertical-align: inherit;&quot;&gt;receive request from fov&lt;/font&gt;&lt;/font&gt;" style="rounded=0;whiteSpace=wrap;html=1;" parent="77e6c97f196da883-3" vertex="1">
          <mxGeometry x="100" y="40" width="120" height="60" as="geometry" />
        </mxCell>
        <mxCell id="_sFiiLIYxgbGUmQesAW4-55" style="edgeStyle=orthogonalEdgeStyle;rounded=0;orthogonalLoop=1;jettySize=auto;html=1;entryX=0.75;entryY=0;entryDx=0;entryDy=0;" edge="1" parent="77e6c97f196da883-3" source="feaUcs5_Ua8oaHWOWOog-5" target="_sFiiLIYxgbGUmQesAW4-6">
          <mxGeometry relative="1" as="geometry" />
        </mxCell>
        <mxCell id="_sFiiLIYxgbGUmQesAW4-56" style="edgeStyle=orthogonalEdgeStyle;rounded=0;orthogonalLoop=1;jettySize=auto;html=1;entryX=0.5;entryY=0;entryDx=0;entryDy=0;" edge="1" parent="77e6c97f196da883-3" source="feaUcs5_Ua8oaHWOWOog-5" target="feaUcs5_Ua8oaHWOWOog-7">
          <mxGeometry relative="1" as="geometry" />
        </mxCell>
        <mxCell id="feaUcs5_Ua8oaHWOWOog-5" value="&lt;font style=&quot;vertical-align: inherit;&quot;&gt;&lt;font style=&quot;vertical-align: inherit;&quot;&gt;Check request&lt;/font&gt;&lt;/font&gt;" style="rhombus;whiteSpace=wrap;html=1;" parent="77e6c97f196da883-3" vertex="1">
          <mxGeometry x="125.63" y="140" width="72.5" height="60" as="geometry" />
        </mxCell>
        <mxCell id="feaUcs5_Ua8oaHWOWOog-7" value="SelectInfor" style="rounded=0;whiteSpace=wrap;html=1;" parent="77e6c97f196da883-3" vertex="1">
          <mxGeometry x="190" y="270" width="100" height="50" as="geometry" />
        </mxCell>
        <mxCell id="_sFiiLIYxgbGUmQesAW4-53" style="edgeStyle=orthogonalEdgeStyle;rounded=0;orthogonalLoop=1;jettySize=auto;html=1;entryX=0.5;entryY=0;entryDx=0;entryDy=0;" edge="1" parent="77e6c97f196da883-3" source="_sFiiLIYxgbGUmQesAW4-2" target="_sFiiLIYxgbGUmQesAW4-9">
          <mxGeometry relative="1" as="geometry" />
        </mxCell>
        <mxCell id="_sFiiLIYxgbGUmQesAW4-2" value="&quot;ACK&quot; - &quot;ISSUE&quot; button onClick" style="rounded=0;whiteSpace=wrap;html=1;" vertex="1" parent="77e6c97f196da883-3">
          <mxGeometry x="340" y="267.5" width="110" height="60" as="geometry" />
        </mxCell>
        <mxCell id="_sFiiLIYxgbGUmQesAW4-52" style="edgeStyle=orthogonalEdgeStyle;rounded=0;orthogonalLoop=1;jettySize=auto;html=1;" edge="1" parent="77e6c97f196da883-3" source="_sFiiLIYxgbGUmQesAW4-3">
          <mxGeometry relative="1" as="geometry">
            <mxPoint x="300" y="540" as="targetPoint" />
          </mxGeometry>
        </mxCell>
        <mxCell id="_sFiiLIYxgbGUmQesAW4-3" value="render Infor of item selected" style="rounded=0;whiteSpace=wrap;html=1;" vertex="1" parent="77e6c97f196da883-3">
          <mxGeometry x="340" y="510" width="120" height="60" as="geometry" />
        </mxCell>
        <mxCell id="_sFiiLIYxgbGUmQesAW4-59" style="edgeStyle=orthogonalEdgeStyle;rounded=0;orthogonalLoop=1;jettySize=auto;html=1;entryX=0.5;entryY=0;entryDx=0;entryDy=0;" edge="1" parent="77e6c97f196da883-3" source="_sFiiLIYxgbGUmQesAW4-4" target="_sFiiLIYxgbGUmQesAW4-7">
          <mxGeometry relative="1" as="geometry" />
        </mxCell>
        <mxCell id="_sFiiLIYxgbGUmQesAW4-4" value="Cancel return?" style="rhombus;whiteSpace=wrap;html=1;" vertex="1" parent="77e6c97f196da883-3">
          <mxGeometry x="45.63" y="360" width="70" height="55.37" as="geometry" />
        </mxCell>
        <mxCell id="_sFiiLIYxgbGUmQesAW4-58" style="edgeStyle=orthogonalEdgeStyle;rounded=0;orthogonalLoop=1;jettySize=auto;html=1;entryX=0.5;entryY=0;entryDx=0;entryDy=0;" edge="1" parent="77e6c97f196da883-3" source="_sFiiLIYxgbGUmQesAW4-6" target="_sFiiLIYxgbGUmQesAW4-4">
          <mxGeometry relative="1" as="geometry" />
        </mxCell>
        <mxCell id="_sFiiLIYxgbGUmQesAW4-6" value="return fov" style="rounded=0;whiteSpace=wrap;html=1;" vertex="1" parent="77e6c97f196da883-3">
          <mxGeometry x="30" y="275" width="102.5" height="45" as="geometry" />
        </mxCell>
        <mxCell id="_sFiiLIYxgbGUmQesAW4-54" style="edgeStyle=orthogonalEdgeStyle;rounded=0;orthogonalLoop=1;jettySize=auto;html=1;entryX=0.5;entryY=1;entryDx=0;entryDy=0;" edge="1" parent="77e6c97f196da883-3" source="_sFiiLIYxgbGUmQesAW4-7" target="feaUcs5_Ua8oaHWOWOog-7">
          <mxGeometry relative="1" as="geometry" />
        </mxCell>
        <mxCell id="_sFiiLIYxgbGUmQesAW4-7" value="Recall return" style="rounded=0;whiteSpace=wrap;html=1;" vertex="1" parent="77e6c97f196da883-3">
          <mxGeometry x="25.63" y="450" width="111.25" height="50" as="geometry" />
        </mxCell>
        <mxCell id="_sFiiLIYxgbGUmQesAW4-51" style="edgeStyle=orthogonalEdgeStyle;rounded=0;orthogonalLoop=1;jettySize=auto;html=1;entryX=0.45;entryY=-0.017;entryDx=0;entryDy=0;entryPerimeter=0;" edge="1" parent="77e6c97f196da883-3" source="_sFiiLIYxgbGUmQesAW4-9" target="_sFiiLIYxgbGUmQesAW4-3">
          <mxGeometry relative="1" as="geometry" />
        </mxCell>
        <mxCell id="_sFiiLIYxgbGUmQesAW4-9" value="Declare for selected onClick" style="rounded=0;whiteSpace=wrap;html=1;" vertex="1" parent="77e6c97f196da883-3">
          <mxGeometry x="330" y="370" width="120" height="60" as="geometry" />
        </mxCell>
        <mxCell id="_sFiiLIYxgbGUmQesAW4-60" style="edgeStyle=orthogonalEdgeStyle;rounded=0;orthogonalLoop=1;jettySize=auto;html=1;" edge="1" parent="77e6c97f196da883-3" source="_sFiiLIYxgbGUmQesAW4-12" target="_sFiiLIYxgbGUmQesAW4-13">
          <mxGeometry relative="1" as="geometry" />
        </mxCell>
        <mxCell id="_sFiiLIYxgbGUmQesAW4-12" value="Enter maker&#39;s name" style="rounded=0;whiteSpace=wrap;html=1;" vertex="1" parent="77e6c97f196da883-3">
          <mxGeometry x="190" y="530" width="107.5" height="50" as="geometry" />
        </mxCell>
        <mxCell id="_sFiiLIYxgbGUmQesAW4-13" value="Check subtances type in product" style="rounded=0;whiteSpace=wrap;html=1;" vertex="1" parent="77e6c97f196da883-3">
          <mxGeometry x="25.629999999999995" y="530" width="120" height="40" as="geometry" />
        </mxCell>
        <mxCell id="_sFiiLIYxgbGUmQesAW4-44" style="edgeStyle=orthogonalEdgeStyle;rounded=0;orthogonalLoop=1;jettySize=auto;html=1;entryX=0.5;entryY=0;entryDx=0;entryDy=0;" edge="1" parent="77e6c97f196da883-3" source="_sFiiLIYxgbGUmQesAW4-14" target="_sFiiLIYxgbGUmQesAW4-17">
          <mxGeometry relative="1" as="geometry" />
        </mxCell>
        <mxCell id="_sFiiLIYxgbGUmQesAW4-45" style="edgeStyle=orthogonalEdgeStyle;rounded=0;orthogonalLoop=1;jettySize=auto;html=1;entryX=0.5;entryY=0;entryDx=0;entryDy=0;" edge="1" parent="77e6c97f196da883-3" source="_sFiiLIYxgbGUmQesAW4-14" target="_sFiiLIYxgbGUmQesAW4-16">
          <mxGeometry relative="1" as="geometry" />
        </mxCell>
        <mxCell id="_sFiiLIYxgbGUmQesAW4-14" value="Subtance oke?" style="rhombus;whiteSpace=wrap;html=1;" vertex="1" parent="77e6c97f196da883-3">
          <mxGeometry x="45.63" y="620" width="80" height="70" as="geometry" />
        </mxCell>
        <mxCell id="_sFiiLIYxgbGUmQesAW4-46" style="edgeStyle=orthogonalEdgeStyle;rounded=0;orthogonalLoop=1;jettySize=auto;html=1;entryX=0;entryY=0.5;entryDx=0;entryDy=0;" edge="1" parent="77e6c97f196da883-3" source="_sFiiLIYxgbGUmQesAW4-16" target="_sFiiLIYxgbGUmQesAW4-18">
          <mxGeometry relative="1" as="geometry" />
        </mxCell>
        <mxCell id="_sFiiLIYxgbGUmQesAW4-16" value="Show table for filling" style="rounded=0;whiteSpace=wrap;html=1;" vertex="1" parent="77e6c97f196da883-3">
          <mxGeometry x="198.13" y="750" width="120" height="60" as="geometry" />
        </mxCell>
        <mxCell id="_sFiiLIYxgbGUmQesAW4-17" value="Show support document" style="rounded=0;whiteSpace=wrap;html=1;" vertex="1" parent="77e6c97f196da883-3">
          <mxGeometry x="30" y="750" width="120" height="60" as="geometry" />
        </mxCell>
        <mxCell id="_sFiiLIYxgbGUmQesAW4-47" style="edgeStyle=orthogonalEdgeStyle;rounded=0;orthogonalLoop=1;jettySize=auto;html=1;entryX=0.5;entryY=0;entryDx=0;entryDy=0;" edge="1" parent="77e6c97f196da883-3" source="_sFiiLIYxgbGUmQesAW4-18" target="_sFiiLIYxgbGUmQesAW4-19">
          <mxGeometry relative="1" as="geometry" />
        </mxCell>
        <mxCell id="_sFiiLIYxgbGUmQesAW4-49" style="edgeStyle=orthogonalEdgeStyle;rounded=0;orthogonalLoop=1;jettySize=auto;html=1;entryX=0.832;entryY=0;entryDx=0;entryDy=0;entryPerimeter=0;" edge="1" parent="77e6c97f196da883-3" source="_sFiiLIYxgbGUmQesAW4-18" target="_sFiiLIYxgbGUmQesAW4-16">
          <mxGeometry relative="1" as="geometry" />
        </mxCell>
        <mxCell id="_sFiiLIYxgbGUmQesAW4-18" value="fill Done?" style="rhombus;whiteSpace=wrap;html=1;" vertex="1" parent="77e6c97f196da883-3">
          <mxGeometry x="370" y="750" width="70" height="60" as="geometry" />
        </mxCell>
        <mxCell id="_sFiiLIYxgbGUmQesAW4-48" style="edgeStyle=orthogonalEdgeStyle;rounded=0;orthogonalLoop=1;jettySize=auto;html=1;entryX=1;entryY=0.5;entryDx=0;entryDy=0;" edge="1" parent="77e6c97f196da883-3" source="_sFiiLIYxgbGUmQesAW4-19" target="_sFiiLIYxgbGUmQesAW4-20">
          <mxGeometry relative="1" as="geometry" />
        </mxCell>
        <mxCell id="_sFiiLIYxgbGUmQesAW4-19" value="fully subtaces shown" style="rounded=0;whiteSpace=wrap;html=1;" vertex="1" parent="77e6c97f196da883-3">
          <mxGeometry x="345" y="900" width="120" height="60" as="geometry" />
        </mxCell>
        <mxCell id="_sFiiLIYxgbGUmQesAW4-20" value="Release" style="rounded=0;whiteSpace=wrap;html=1;" vertex="1" parent="77e6c97f196da883-3">
          <mxGeometry x="30" y="860" width="120" height="60" as="geometry" />
        </mxCell>
        <mxCell id="_sFiiLIYxgbGUmQesAW4-28" value="" style="endArrow=classic;html=1;rounded=0;entryX=0.5;entryY=0;entryDx=0;entryDy=0;exitX=0.5;exitY=1;exitDx=0;exitDy=0;" edge="1" parent="77e6c97f196da883-3" source="feaUcs5_Ua8oaHWOWOog-4" target="feaUcs5_Ua8oaHWOWOog-5">
          <mxGeometry width="50" height="50" relative="1" as="geometry">
            <mxPoint x="210" y="140" as="sourcePoint" />
            <mxPoint x="80" y="280" as="targetPoint" />
          </mxGeometry>
        </mxCell>
        <mxCell id="_sFiiLIYxgbGUmQesAW4-31" value="" style="endArrow=classic;html=1;rounded=0;entryX=0;entryY=0.5;entryDx=0;entryDy=0;" edge="1" parent="77e6c97f196da883-3" source="feaUcs5_Ua8oaHWOWOog-7" target="_sFiiLIYxgbGUmQesAW4-2">
          <mxGeometry width="50" height="50" relative="1" as="geometry">
            <mxPoint x="30" y="430" as="sourcePoint" />
            <mxPoint x="80" y="380" as="targetPoint" />
          </mxGeometry>
        </mxCell>
        <mxCell id="_sFiiLIYxgbGUmQesAW4-43" value="" style="endArrow=classic;html=1;rounded=0;entryX=0.5;entryY=0;entryDx=0;entryDy=0;exitX=0.5;exitY=1;exitDx=0;exitDy=0;" edge="1" parent="77e6c97f196da883-3" source="_sFiiLIYxgbGUmQesAW4-13" target="_sFiiLIYxgbGUmQesAW4-14">
          <mxGeometry width="50" height="50" relative="1" as="geometry">
            <mxPoint x="30" y="830" as="sourcePoint" />
            <mxPoint x="80" y="780" as="targetPoint" />
          </mxGeometry>
        </mxCell>
        <mxCell id="_sFiiLIYxgbGUmQesAW4-57" style="edgeStyle=orthogonalEdgeStyle;rounded=0;orthogonalLoop=1;jettySize=auto;html=1;entryX=1;entryY=0.5;entryDx=0;entryDy=0;" edge="1" parent="77e6c97f196da883-1" source="_sFiiLIYxgbGUmQesAW4-7" target="_sFiiLIYxgbGUmQesAW4-8">
          <mxGeometry relative="1" as="geometry" />
        </mxCell>
        <mxCell id="_sFiiLIYxgbGUmQesAW4-61" style="edgeStyle=orthogonalEdgeStyle;rounded=0;orthogonalLoop=1;jettySize=auto;html=1;entryX=1;entryY=0.5;entryDx=0;entryDy=0;" edge="1" parent="77e6c97f196da883-1" source="_sFiiLIYxgbGUmQesAW4-6" target="_sFiiLIYxgbGUmQesAW4-1">
          <mxGeometry relative="1" as="geometry" />
        </mxCell>
        <mxCell id="_sFiiLIYxgbGUmQesAW4-62" style="edgeStyle=orthogonalEdgeStyle;rounded=0;orthogonalLoop=1;jettySize=auto;html=1;entryX=1;entryY=0.5;entryDx=0;entryDy=0;" edge="1" parent="77e6c97f196da883-1" source="_sFiiLIYxgbGUmQesAW4-20" target="_sFiiLIYxgbGUmQesAW4-22">
          <mxGeometry relative="1" as="geometry" />
        </mxCell>
      </root>
    </mxGraphModel>
  </diagram>
</mxfile>
